<?xml version="1.0" encoding="UTF-8" standalone="no"?>
<!DOCTYPE svg PUBLIC "-//W3C//DTD SVG 1.1//EN"
 "http://www.w3.org/Graphics/SVG/1.1/DTD/svg11.dtd">
<!-- Generated by graphviz version 15.0.0 (20260523.1842)
 -->
<!-- Title: moine_romaji_lattice Pages: 1 -->
<svg width="1318pt" height="469pt"
 viewBox="0.00 0.00 1318.00 469.00" xmlns="http://www.w3.org/2000/svg" xmlns:xlink="http://www.w3.org/1999/xlink">
<g id="graph0" class="graph" transform="scale(1 1) rotate(0) translate(4 465)">
<title>moine_romaji_lattice</title>
<polygon fill="white" stroke="none" points="-4,4 -4,-465 1314.02,-465 1314.02,4 -4,4"/>
<text xml:space="preserve" text-anchor="middle" x="655.01" y="-443.7" font-family="Helvetica,sans-Serif" font-size="14.00">distance=0</text>
<text xml:space="preserve" text-anchor="middle" x="655.01" y="-428.7" font-family="Helvetica,sans-Serif" font-size="14.00">best_left=jujutukaisem</text>
<text xml:space="preserve" text-anchor="middle" x="655.01" y="-413.7" font-family="Helvetica,sans-Serif" font-size="14.00">best_right=jujutukaisem</text>
<g id="clust1" class="cluster">
<title>cluster_right</title>
<path fill="none" stroke="#ced4da" d="M20,-8C20,-8 1290.02,-8 1290.02,-8 1296.02,-8 1302.02,-14 1302.02,-20 1302.02,-20 1302.02,-188 1302.02,-188 1302.02,-194 1296.02,-200 1290.02,-200 1290.02,-200 20,-200 20,-200 14,-200 8,-194 8,-188 8,-188 8,-20 8,-20 8,-14 14,-8 20,-8"/>
<text xml:space="preserve" text-anchor="middle" x="655.01" y="-182.7" font-family="Helvetica,sans-Serif" font-size="14.00">RIGHT</text>
<text xml:space="preserve" text-anchor="middle" x="655.01" y="-167.7" font-family="Helvetica,sans-Serif" font-size="14.00">input=ジュジュツカイセン</text>
</g>
<g id="clust2" class="cluster">
<title>cluster_left</title>
<path fill="none" stroke="#ced4da" d="M20,-208C20,-208 1290.02,-208 1290.02,-208 1296.02,-208 1302.02,-214 1302.02,-220 1302.02,-220 1302.02,-388 1302.02,-388 1302.02,-394 1296.02,-400 1290.02,-400 1290.02,-400 20,-400 20,-400 14,-400 8,-394 8,-388 8,-388 8,-220 8,-220 8,-214 14,-208 20,-208"/>
<text xml:space="preserve" text-anchor="middle" x="655.01" y="-382.7" font-family="Helvetica,sans-Serif" font-size="14.00">LEFT</text>
<text xml:space="preserve" text-anchor="middle" x="655.01" y="-367.7" font-family="Helvetica,sans-Serif" font-size="14.00">input=呪術廻戦</text>
</g>
<!-- right_0 -->
<g id="node1" class="node">
<title>right_0</title>
<ellipse fill="none" stroke="#9a5b38" stroke-width="2.4" cx="33.28" cy="-73" rx="17.28" ry="17.28"/>
<text xml:space="preserve" text-anchor="middle" x="33.28" y="-67.2" font-family="Helvetica,sans-Serif" font-size="14.00">BOS</text>
</g>
<!-- right_1 -->
<g id="node2" class="node">
<title>right_1</title>
<ellipse fill="none" stroke="#9a5b38" stroke-width="2.4" cx="110.59" cy="-47" rx="17.28" ry="17.28"/>
<text xml:space="preserve" text-anchor="middle" x="110.59" y="-41.2" font-family="Helvetica,sans-Serif" font-size="14.00">1</text>
</g>
<!-- right_0&#45;&gt;right_1 -->
<g id="edge1" class="edge">
<title>right_0&#45;&gt;right_1</title>
<path fill="none" stroke="#9a5b38" stroke-width="3" d="M50.19,-66.1C55.93,-63.72 62.49,-61.12 68.56,-59 72.85,-57.5 77.44,-56.03 81.93,-54.66"/>
<polygon fill="#9a5b38" stroke="#9a5b38" stroke-width="3" points="82.31,-57.11 88.34,-52.79 80.93,-52.4 82.31,-57.11"/>
<text xml:space="preserve" text-anchor="middle" x="71.93" y="-60.7" font-family="Helvetica,sans-Serif" font-size="14.00" fill="#9a5b38">j</text>
</g>
<!-- right_2 -->
<g id="node3" class="node">
<title>right_2</title>
<ellipse fill="none" stroke="#495057" stroke-width="1.2" cx="110.59" cy="-100" rx="17.28" ry="17.28"/>
<text xml:space="preserve" text-anchor="middle" x="110.59" y="-94.2" font-family="Helvetica,sans-Serif" font-size="14.00">2</text>
</g>
<!-- right_0&#45;&gt;right_2 -->
<g id="edge2" class="edge">
<title>right_0&#45;&gt;right_2</title>
<path fill="none" stroke="#868e96" stroke-width="1.1" d="M50.62,-78.86C60.93,-82.55 74.4,-87.39 85.87,-91.5"/>
<polygon fill="#868e96" stroke="#868e96" stroke-width="1.1" points="84.81,-93.72 92.23,-93.78 86.47,-89.11 84.81,-93.72"/>
<text xml:space="preserve" text-anchor="middle" x="71.93" y="-89.01" font-family="Helvetica,sans-Serif" font-size="14.00" fill="#868e96">z</text>
</g>
<!-- right_3 -->
<g id="node4" class="node">
<title>right_3</title>
<ellipse fill="none" stroke="#495057" stroke-width="1.2" cx="187.9" cy="-88" rx="17.28" ry="17.28"/>
<text xml:space="preserve" text-anchor="middle" x="187.9" y="-82.2" font-family="Helvetica,sans-Serif" font-size="14.00">3</text>
</g>
<!-- right_1&#45;&gt;right_3 -->
<g id="edge4" class="edge">
<title>right_1&#45;&gt;right_3</title>
<path fill="none" stroke="#868e96" stroke-width="1.1" d="M126.83,-55.3C137.69,-61.21 152.46,-69.25 164.64,-75.88"/>
<polygon fill="#868e96" stroke="#868e96" stroke-width="1.1" points="163.41,-78 170.73,-79.2 165.76,-73.7 163.41,-78"/>
<text xml:space="preserve" text-anchor="middle" x="149.24" y="-70.43" font-family="Helvetica,sans-Serif" font-size="14.00" fill="#868e96">y</text>
</g>
<!-- right_4 -->
<g id="node5" class="node">
<title>right_4</title>
<ellipse fill="none" stroke="#9a5b38" stroke-width="2.4" cx="265.96" cy="-71" rx="17.28" ry="17.28"/>
<text xml:space="preserve" text-anchor="middle" x="265.96" y="-65.2" font-family="Helvetica,sans-Serif" font-size="14.00">4</text>
</g>
<!-- right_1&#45;&gt;right_4 -->
<g id="edge3" class="edge">
<title>right_1&#45;&gt;right_4</title>
<path fill="none" stroke="#9a5b38" stroke-width="3" d="M128.68,-45.07C147.59,-43.38 178.86,-41.91 205.18,-47 216.71,-49.23 228.84,-53.67 239.14,-58.13"/>
<polygon fill="#9a5b38" stroke="#9a5b38" stroke-width="3" points="237.97,-60.29 245.35,-60.98 240.01,-55.83 237.97,-60.29"/>
<text xml:space="preserve" text-anchor="middle" x="187.9" y="-48.7" font-family="Helvetica,sans-Serif" font-size="14.00" fill="#9a5b38">u</text>
</g>
<!-- right_2&#45;&gt;right_3 -->
<g id="edge5" class="edge">
<title>right_2&#45;&gt;right_3</title>
<path fill="none" stroke="#868e96" stroke-width="1.1" d="M127.93,-97.4C137.83,-95.82 150.66,-93.77 161.82,-92"/>
<polygon fill="#868e96" stroke="#868e96" stroke-width="1.1" points="162.16,-94.42 168.69,-90.9 161.39,-89.58 162.16,-94.42"/>
<text xml:space="preserve" text-anchor="middle" x="149.24" y="-96.06" font-family="Helvetica,sans-Serif" font-size="14.00" fill="#868e96">y</text>
</g>
<!-- right_3&#45;&gt;right_4 -->
<g id="edge6" class="edge">
<title>right_3&#45;&gt;right_4</title>
<path fill="none" stroke="#868e96" stroke-width="1.1" d="M205.03,-84.39C215.11,-82.14 228.3,-79.19 239.74,-76.64"/>
<polygon fill="#868e96" stroke="#868e96" stroke-width="1.1" points="240.14,-79.06 246.44,-75.14 239.07,-74.28 240.14,-79.06"/>
<text xml:space="preserve" text-anchor="middle" x="226.93" y="-81.71" font-family="Helvetica,sans-Serif" font-size="14.00" fill="#868e96">u</text>
</g>
<!-- right_5 -->
<g id="node6" class="node">
<title>right_5</title>
<ellipse fill="none" stroke="#9a5b38" stroke-width="2.4" cx="343.27" cy="-64" rx="17.28" ry="17.28"/>
<text xml:space="preserve" text-anchor="middle" x="343.27" y="-58.2" font-family="Helvetica,sans-Serif" font-size="14.00">5</text>
</g>
<!-- right_4&#45;&gt;right_5 -->
<g id="edge7" class="edge">
<title>right_4&#45;&gt;right_5</title>
<path fill="none" stroke="#9a5b38" stroke-width="3" d="M284.05,-69.41C292.75,-68.6 303.56,-67.6 313.5,-66.67"/>
<polygon fill="#9a5b38" stroke="#9a5b38" stroke-width="3" points="313.72,-69.11 320.47,-66.03 313.27,-64.24 313.72,-69.11"/>
<text xml:space="preserve" text-anchor="middle" x="304.61" y="-69.41" font-family="Helvetica,sans-Serif" font-size="14.00" fill="#9a5b38">j</text>
</g>
<!-- right_6 -->
<g id="node7" class="node">
<title>right_6</title>
<ellipse fill="none" stroke="#495057" stroke-width="1.2" cx="343.27" cy="-117" rx="17.28" ry="17.28"/>
<text xml:space="preserve" text-anchor="middle" x="343.27" y="-111.2" font-family="Helvetica,sans-Serif" font-size="14.00">6</text>
</g>
<!-- right_4&#45;&gt;right_6 -->
<g id="edge8" class="edge">
<title>right_4&#45;&gt;right_6</title>
<path fill="none" stroke="#868e96" stroke-width="1.1" d="M281.84,-80.09C292.91,-86.85 308.2,-96.19 320.63,-103.78"/>
<polygon fill="#868e96" stroke="#868e96" stroke-width="1.1" points="319.26,-105.82 326.51,-107.38 321.82,-101.64 319.26,-105.82"/>
<text xml:space="preserve" text-anchor="middle" x="304.61" y="-97.08" font-family="Helvetica,sans-Serif" font-size="14.00" fill="#868e96">z</text>
</g>
<!-- right_7 -->
<g id="node8" class="node">
<title>right_7</title>
<ellipse fill="none" stroke="#495057" stroke-width="1.2" cx="420.58" cy="-105" rx="17.28" ry="17.28"/>
<text xml:space="preserve" text-anchor="middle" x="420.58" y="-99.2" font-family="Helvetica,sans-Serif" font-size="14.00">7</text>
</g>
<!-- right_5&#45;&gt;right_7 -->
<g id="edge10" class="edge">
<title>right_5&#45;&gt;right_7</title>
<path fill="none" stroke="#868e96" stroke-width="1.1" d="M359.51,-72.3C370.37,-78.21 385.14,-86.25 397.32,-92.88"/>
<polygon fill="#868e96" stroke="#868e96" stroke-width="1.1" points="396.09,-95 403.41,-96.2 398.44,-90.7 396.09,-95"/>
<text xml:space="preserve" text-anchor="middle" x="381.92" y="-87.43" font-family="Helvetica,sans-Serif" font-size="14.00" fill="#868e96">y</text>
</g>
<!-- right_8 -->
<g id="node9" class="node">
<title>right_8</title>
<ellipse fill="none" stroke="#9a5b38" stroke-width="2.4" cx="498.64" cy="-55" rx="17.28" ry="17.28"/>
<text xml:space="preserve" text-anchor="middle" x="498.64" y="-49.2" font-family="Helvetica,sans-Serif" font-size="14.00">8</text>
</g>
<!-- right_5&#45;&gt;right_8 -->
<g id="edge9" class="edge">
<title>right_5&#45;&gt;right_8</title>
<path fill="none" stroke="#9a5b38" stroke-width="3" d="M361.57,-62.99C387.71,-61.45 437.58,-58.52 469.14,-56.67"/>
<polygon fill="#9a5b38" stroke="#9a5b38" stroke-width="3" points="469.26,-59.12 476.11,-56.26 468.98,-54.23 469.26,-59.12"/>
<text xml:space="preserve" text-anchor="middle" x="420.58" y="-62.09" font-family="Helvetica,sans-Serif" font-size="14.00" fill="#9a5b38">u</text>
</g>
<!-- right_6&#45;&gt;right_7 -->
<g id="edge11" class="edge">
<title>right_6&#45;&gt;right_7</title>
<path fill="none" stroke="#868e96" stroke-width="1.1" d="M360.61,-114.4C370.51,-112.82 383.34,-110.77 394.5,-109"/>
<polygon fill="#868e96" stroke="#868e96" stroke-width="1.1" points="394.84,-111.42 401.37,-107.9 394.07,-106.58 394.84,-111.42"/>
<text xml:space="preserve" text-anchor="middle" x="381.92" y="-113.06" font-family="Helvetica,sans-Serif" font-size="14.00" fill="#868e96">y</text>
</g>
<!-- right_7&#45;&gt;right_8 -->
<g id="edge12" class="edge">
<title>right_7&#45;&gt;right_8</title>
<path fill="none" stroke="#868e96" stroke-width="1.1" d="M435.53,-95.83C446.79,-88.43 462.83,-77.89 475.79,-69.37"/>
<polygon fill="#868e96" stroke="#868e96" stroke-width="1.1" points="477.11,-71.43 481.61,-65.54 474.41,-67.34 477.11,-71.43"/>
<text xml:space="preserve" text-anchor="middle" x="459.61" y="-83.2" font-family="Helvetica,sans-Serif" font-size="14.00" fill="#868e96">u</text>
</g>
<!-- right_9 -->
<g id="node10" class="node">
<title>right_9</title>
<ellipse fill="none" stroke="#9a5b38" stroke-width="2.4" cx="572.95" cy="-55" rx="17.28" ry="17.28"/>
<text xml:space="preserve" text-anchor="middle" x="572.95" y="-49.2" font-family="Helvetica,sans-Serif" font-size="14.00">9</text>
</g>
<!-- right_8&#45;&gt;right_9 -->
<g id="edge13" class="edge">
<title>right_8&#45;&gt;right_9</title>
<path fill="none" stroke="#9a5b38" stroke-width="3" d="M516.78,-55C524.79,-55 534.55,-55 543.62,-55"/>
<polygon fill="#9a5b38" stroke="#9a5b38" stroke-width="3" points="543.4,-57.45 550.4,-55 543.4,-52.55 543.4,-57.45"/>
<text xml:space="preserve" text-anchor="middle" x="535.79" y="-56.7" font-family="Helvetica,sans-Serif" font-size="14.00" fill="#9a5b38">t</text>
</g>
<!-- right_10 -->
<g id="node11" class="node">
<title>right_10</title>
<ellipse fill="none" stroke="#495057" stroke-width="1.2" cx="650.26" cy="-40" rx="17.28" ry="17.28"/>
<text xml:space="preserve" text-anchor="middle" x="650.26" y="-34.2" font-family="Helvetica,sans-Serif" font-size="14.00">10</text>
</g>
<!-- right_9&#45;&gt;right_10 -->
<g id="edge14" class="edge">
<title>right_9&#45;&gt;right_10</title>
<path fill="none" stroke="#868e96" stroke-width="1.1" d="M591.04,-51.6C600.9,-49.63 613.48,-47.13 624.42,-44.95"/>
<polygon fill="#868e96" stroke="#868e96" stroke-width="1.1" points="624.74,-47.38 631.12,-43.61 623.78,-42.58 624.74,-47.38"/>
<text xml:space="preserve" text-anchor="middle" x="611.6" y="-49.65" font-family="Helvetica,sans-Serif" font-size="14.00" fill="#868e96">s</text>
</g>
<!-- right_11 -->
<g id="node12" class="node">
<title>right_11</title>
<ellipse fill="none" stroke="#9a5b38" stroke-width="2.4" cx="728.32" cy="-86" rx="17.28" ry="17.28"/>
<text xml:space="preserve" text-anchor="middle" x="728.32" y="-80.2" font-family="Helvetica,sans-Serif" font-size="14.00">11</text>
</g>
<!-- right_9&#45;&gt;right_11 -->
<g id="edge15" class="edge">
<title>right_9&#45;&gt;right_11</title>
<path fill="none" stroke="#9a5b38" stroke-width="3" d="M590.2,-61.18C595.86,-63.2 602.28,-65.35 608.23,-67 642.04,-76.37 650.78,-78.18 685.54,-83 689.83,-83.59 694.38,-84.08 698.84,-84.46"/>
<polygon fill="#9a5b38" stroke="#9a5b38" stroke-width="3" points="698.5,-86.89 705.66,-84.96 698.86,-82.01 698.5,-86.89"/>
<text xml:space="preserve" text-anchor="middle" x="650.26" y="-82.08" font-family="Helvetica,sans-Serif" font-size="14.00" fill="#9a5b38">u</text>
</g>
<!-- right_10&#45;&gt;right_11 -->
<g id="edge16" class="edge">
<title>right_10&#45;&gt;right_11</title>
<path fill="none" stroke="#868e96" stroke-width="1.1" d="M665.57,-48.65C676.72,-55.4 692.4,-64.88 705.17,-72.6"/>
<polygon fill="#868e96" stroke="#868e96" stroke-width="1.1" points="703.61,-74.53 710.87,-76.05 706.15,-70.33 703.61,-74.53"/>
<text xml:space="preserve" text-anchor="middle" x="689.29" y="-66.08" font-family="Helvetica,sans-Serif" font-size="14.00" fill="#868e96">u</text>
</g>
<!-- right_12 -->
<g id="node13" class="node">
<title>right_12</title>
<ellipse fill="none" stroke="#9a5b38" stroke-width="2.4" cx="805.63" cy="-86" rx="17.28" ry="17.28"/>
<text xml:space="preserve" text-anchor="middle" x="805.63" y="-80.2" font-family="Helvetica,sans-Serif" font-size="14.00">12</text>
</g>
<!-- right_11&#45;&gt;right_12 -->
<g id="edge17" class="edge">
<title>right_11&#45;&gt;right_12</title>
<path fill="none" stroke="#9a5b38" stroke-width="3" d="M746.79,-86C755.44,-86 766.1,-86 775.91,-86"/>
<polygon fill="#9a5b38" stroke="#9a5b38" stroke-width="3" points="775.72,-88.45 782.72,-86 775.72,-83.55 775.72,-88.45"/>
<text xml:space="preserve" text-anchor="middle" x="766.97" y="-87.7" font-family="Helvetica,sans-Serif" font-size="14.00" fill="#9a5b38">k</text>
</g>
<!-- right_13 -->
<g id="node14" class="node">
<title>right_13</title>
<ellipse fill="none" stroke="#9a5b38" stroke-width="2.4" cx="883.69" cy="-86" rx="17.28" ry="17.28"/>
<text xml:space="preserve" text-anchor="middle" x="883.69" y="-80.2" font-family="Helvetica,sans-Serif" font-size="14.00">13</text>
</g>
<!-- right_12&#45;&gt;right_13 -->
<g id="edge18" class="edge">
<title>right_12&#45;&gt;right_13</title>
<path fill="none" stroke="#9a5b38" stroke-width="3" d="M823.89,-86C832.77,-86 843.84,-86 853.97,-86"/>
<polygon fill="#9a5b38" stroke="#9a5b38" stroke-width="3" points="853.7,-88.45 860.7,-86 853.7,-83.55 853.7,-88.45"/>
<text xml:space="preserve" text-anchor="middle" x="844.66" y="-87.7" font-family="Helvetica,sans-Serif" font-size="14.00" fill="#9a5b38">a</text>
</g>
<!-- right_14 -->
<g id="node15" class="node">
<title>right_14</title>
<ellipse fill="none" stroke="#9a5b38" stroke-width="2.4" cx="957.25" cy="-86" rx="17.28" ry="17.28"/>
<text xml:space="preserve" text-anchor="middle" x="957.25" y="-80.2" font-family="Helvetica,sans-Serif" font-size="14.00">14</text>
</g>
<!-- right_13&#45;&gt;right_14 -->
<g id="edge19" class="edge">
<title>right_13&#45;&gt;right_14</title>
<path fill="none" stroke="#9a5b38" stroke-width="3" d="M902.01,-86C909.69,-86 918.93,-86 927.59,-86"/>
<polygon fill="#9a5b38" stroke="#9a5b38" stroke-width="3" points="927.3,-88.45 934.3,-86 927.3,-83.55 927.3,-88.45"/>
<text xml:space="preserve" text-anchor="middle" x="920.47" y="-87.7" font-family="Helvetica,sans-Serif" font-size="14.00" fill="#9a5b38">i</text>
</g>
<!-- right_15 -->
<g id="node16" class="node">
<title>right_15</title>
<ellipse fill="none" stroke="#9a5b38" stroke-width="2.4" cx="1034.56" cy="-86" rx="17.28" ry="17.28"/>
<text xml:space="preserve" text-anchor="middle" x="1034.56" y="-80.2" font-family="Helvetica,sans-Serif" font-size="14.00">15</text>
</g>
<!-- right_14&#45;&gt;right_15 -->
<g id="edge20" class="edge">
<title>right_14&#45;&gt;right_15</title>
<path fill="none" stroke="#9a5b38" stroke-width="3" d="M975.72,-86C984.37,-86 995.03,-86 1004.84,-86"/>
<polygon fill="#9a5b38" stroke="#9a5b38" stroke-width="3" points="1004.65,-88.45 1011.65,-86 1004.65,-83.55 1004.65,-88.45"/>
<text xml:space="preserve" text-anchor="middle" x="995.9" y="-87.7" font-family="Helvetica,sans-Serif" font-size="14.00" fill="#9a5b38">s</text>
</g>
<!-- right_16 -->
<g id="node17" class="node">
<title>right_16</title>
<ellipse fill="none" stroke="#9a5b38" stroke-width="2.4" cx="1112.62" cy="-86" rx="17.28" ry="17.28"/>
<text xml:space="preserve" text-anchor="middle" x="1112.62" y="-80.2" font-family="Helvetica,sans-Serif" font-size="14.00">16</text>
</g>
<!-- right_15&#45;&gt;right_16 -->
<g id="edge21" class="edge">
<title>right_15&#45;&gt;right_16</title>
<path fill="none" stroke="#9a5b38" stroke-width="3" d="M1052.82,-86C1061.7,-86 1072.77,-86 1082.9,-86"/>
<polygon fill="#9a5b38" stroke="#9a5b38" stroke-width="3" points="1082.63,-88.45 1089.63,-86 1082.63,-83.55 1082.63,-88.45"/>
<text xml:space="preserve" text-anchor="middle" x="1073.59" y="-87.7" font-family="Helvetica,sans-Serif" font-size="14.00" fill="#9a5b38">e</text>
</g>
<!-- right_17 -->
<g id="node18" class="node">
<title>right_17</title>
<ellipse fill="none" stroke="#495057" stroke-width="1.2" cx="1190.68" cy="-33" rx="17.28" ry="17.28"/>
<text xml:space="preserve" text-anchor="middle" x="1190.68" y="-27.2" font-family="Helvetica,sans-Serif" font-size="14.00">17</text>
</g>
<!-- right_16&#45;&gt;right_17 -->
<g id="edge24" class="edge">
<title>right_16&#45;&gt;right_17</title>
<path fill="none" stroke="#868e96" stroke-width="1.1" d="M1127.93,-76.03C1139.47,-67.99 1155.88,-56.55 1168.88,-47.5"/>
<polygon fill="#868e96" stroke="#868e96" stroke-width="1.1" points="1169.99,-49.71 1174.33,-43.7 1167.18,-45.69 1169.99,-49.71"/>
<text xml:space="preserve" text-anchor="middle" x="1151.65" y="-62.79" font-family="Helvetica,sans-Serif" font-size="14.00" fill="#868e96">n</text>
</g>
<!-- right_18 -->
<g id="node19" class="node">
<title>right_18</title>
<ellipse fill="none" stroke="#9a5b38" stroke-width="2.4" cx="1272.74" cy="-86" rx="17.28" ry="17.28"/>
<ellipse fill="none" stroke="#9a5b38" stroke-width="2.4" cx="1272.74" cy="-86" rx="21.28" ry="21.28"/>
<text xml:space="preserve" text-anchor="middle" x="1272.74" y="-80.2" font-family="Helvetica,sans-Serif" font-size="14.00">EOS</text>
</g>
<!-- right_16&#45;&gt;right_18 -->
<g id="edge22" class="edge">
<title>right_16&#45;&gt;right_18</title>
<path fill="none" stroke="#9a5b38" stroke-width="3" d="M1130.84,-86C1156.72,-86 1206.1,-86 1238.98,-86"/>
<polygon fill="#9a5b38" stroke="#9a5b38" stroke-width="3" points="1238.73,-88.45 1245.73,-86 1238.73,-83.55 1238.73,-88.45"/>
<text xml:space="preserve" text-anchor="middle" x="1190.68" y="-87.7" font-family="Helvetica,sans-Serif" font-size="14.00" fill="#9a5b38">m</text>
</g>
<!-- right_16&#45;&gt;right_18 -->
<g id="edge23" class="edge">
<title>right_16&#45;&gt;right_18</title>
<path fill="none" stroke="#868e96" stroke-width="1.1" d="M1129.79,-92.63C1141.63,-97.12 1158.23,-102.65 1173.4,-105 1188.58,-107.35 1192.76,-107.22 1207.96,-105 1219.89,-103.26 1232.7,-99.78 1243.68,-96.27"/>
<polygon fill="#868e96" stroke="#868e96" stroke-width="1.1" points="1244.24,-98.67 1250.1,-94.13 1242.69,-94.02 1244.24,-98.67"/>
<text xml:space="preserve" text-anchor="middle" x="1190.68" y="-108.41" font-family="Helvetica,sans-Serif" font-size="14.00" fill="#868e96">n</text>
</g>
<!-- right_17&#45;&gt;right_18 -->
<g id="edge25" class="edge">
<title>right_17&#45;&gt;right_18</title>
<path fill="none" stroke="#868e96" stroke-width="1.1" d="M1205.63,-42.23C1216.89,-49.69 1233.04,-60.38 1246.55,-69.32"/>
<polygon fill="#868e96" stroke="#868e96" stroke-width="1.1" points="1245.16,-71.34 1252.35,-73.17 1247.87,-67.26 1245.16,-71.34"/>
<text xml:space="preserve" text-anchor="middle" x="1229.71" y="-61.2" font-family="Helvetica,sans-Serif" font-size="14.00" fill="#868e96">n</text>
</g>
<!-- left_0 -->
<g id="node20" class="node">
<title>left_0</title>
<ellipse fill="none" stroke="#9a5b38" stroke-width="2.4" cx="33.28" cy="-273" rx="17.28" ry="17.28"/>
<text xml:space="preserve" text-anchor="middle" x="33.28" y="-267.2" font-family="Helvetica,sans-Serif" font-size="14.00">BOS</text>
</g>
<!-- left_1 -->
<g id="node21" class="node">
<title>left_1</title>
<ellipse fill="none" stroke="#9a5b38" stroke-width="2.4" cx="110.59" cy="-247" rx="17.28" ry="17.28"/>
<text xml:space="preserve" text-anchor="middle" x="110.59" y="-241.2" font-family="Helvetica,sans-Serif" font-size="14.00">1</text>
</g>
<!-- left_0&#45;&gt;left_1 -->
<g id="edge26" class="edge">
<title>left_0&#45;&gt;left_1</title>
<path fill="none" stroke="#9a5b38" stroke-width="3" d="M50.19,-266.1C55.93,-263.72 62.49,-261.12 68.56,-259 72.85,-257.5 77.44,-256.03 81.93,-254.66"/>
<polygon fill="#9a5b38" stroke="#9a5b38" stroke-width="3" points="82.31,-257.11 88.34,-252.79 80.93,-252.4 82.31,-257.11"/>
<text xml:space="preserve" text-anchor="middle" x="71.93" y="-260.7" font-family="Helvetica,sans-Serif" font-size="14.00" fill="#9a5b38">j</text>
</g>
<!-- left_2 -->
<g id="node22" class="node">
<title>left_2</title>
<ellipse fill="none" stroke="#495057" stroke-width="1.2" cx="110.59" cy="-300" rx="17.28" ry="17.28"/>
<text xml:space="preserve" text-anchor="middle" x="110.59" y="-294.2" font-family="Helvetica,sans-Serif" font-size="14.00">2</text>
</g>
<!-- left_0&#45;&gt;left_2 -->
<g id="edge27" class="edge">
<title>left_0&#45;&gt;left_2</title>
<path fill="none" stroke="#868e96" stroke-width="1.1" d="M50.62,-278.86C60.93,-282.55 74.4,-287.39 85.87,-291.5"/>
<polygon fill="#868e96" stroke="#868e96" stroke-width="1.1" points="84.81,-293.72 92.23,-293.78 86.47,-289.11 84.81,-293.72"/>
<text xml:space="preserve" text-anchor="middle" x="71.93" y="-289.01" font-family="Helvetica,sans-Serif" font-size="14.00" fill="#868e96">z</text>
</g>
<!-- left_3 -->
<g id="node23" class="node">
<title>left_3</title>
<ellipse fill="none" stroke="#495057" stroke-width="1.2" cx="187.9" cy="-288" rx="17.28" ry="17.28"/>
<text xml:space="preserve" text-anchor="middle" x="187.9" y="-282.2" font-family="Helvetica,sans-Serif" font-size="14.00">3</text>
</g>
<!-- left_1&#45;&gt;left_3 -->
<g id="edge29" class="edge">
<title>left_1&#45;&gt;left_3</title>
<path fill="none" stroke="#868e96" stroke-width="1.1" d="M126.83,-255.3C137.69,-261.21 152.46,-269.25 164.64,-275.88"/>
<polygon fill="#868e96" stroke="#868e96" stroke-width="1.1" points="163.41,-278 170.73,-279.2 165.76,-273.7 163.41,-278"/>
<text xml:space="preserve" text-anchor="middle" x="149.24" y="-270.43" font-family="Helvetica,sans-Serif" font-size="14.00" fill="#868e96">y</text>
</g>
<!-- left_4 -->
<g id="node24" class="node">
<title>left_4</title>
<ellipse fill="none" stroke="#9a5b38" stroke-width="2.4" cx="265.96" cy="-271" rx="17.28" ry="17.28"/>
<text xml:space="preserve" text-anchor="middle" x="265.96" y="-265.2" font-family="Helvetica,sans-Serif" font-size="14.00">4</text>
</g>
<!-- left_1&#45;&gt;left_4 -->
<g id="edge28" class="edge">
<title>left_1&#45;&gt;left_4</title>
<path fill="none" stroke="#9a5b38" stroke-width="3" d="M128.68,-245.07C147.59,-243.38 178.86,-241.91 205.18,-247 216.71,-249.23 228.84,-253.67 239.14,-258.13"/>
<polygon fill="#9a5b38" stroke="#9a5b38" stroke-width="3" points="237.97,-260.29 245.35,-260.98 240.01,-255.83 237.97,-260.29"/>
<text xml:space="preserve" text-anchor="middle" x="187.9" y="-248.7" font-family="Helvetica,sans-Serif" font-size="14.00" fill="#9a5b38">u</text>
</g>
<!-- left_2&#45;&gt;left_3 -->
<g id="edge30" class="edge">
<title>left_2&#45;&gt;left_3</title>
<path fill="none" stroke="#868e96" stroke-width="1.1" d="M127.93,-297.4C137.83,-295.82 150.66,-293.77 161.82,-292"/>
<polygon fill="#868e96" stroke="#868e96" stroke-width="1.1" points="162.16,-294.42 168.69,-290.9 161.39,-289.58 162.16,-294.42"/>
<text xml:space="preserve" text-anchor="middle" x="149.24" y="-296.06" font-family="Helvetica,sans-Serif" font-size="14.00" fill="#868e96">y</text>
</g>
<!-- left_3&#45;&gt;left_4 -->
<g id="edge31" class="edge">
<title>left_3&#45;&gt;left_4</title>
<path fill="none" stroke="#868e96" stroke-width="1.1" d="M205.03,-284.39C215.11,-282.14 228.3,-279.19 239.74,-276.64"/>
<polygon fill="#868e96" stroke="#868e96" stroke-width="1.1" points="240.14,-279.06 246.44,-275.14 239.07,-274.28 240.14,-279.06"/>
<text xml:space="preserve" text-anchor="middle" x="226.93" y="-281.71" font-family="Helvetica,sans-Serif" font-size="14.00" fill="#868e96">u</text>
</g>
<!-- left_5 -->
<g id="node25" class="node">
<title>left_5</title>
<ellipse fill="none" stroke="#9a5b38" stroke-width="2.4" cx="343.27" cy="-264" rx="17.28" ry="17.28"/>
<text xml:space="preserve" text-anchor="middle" x="343.27" y="-258.2" font-family="Helvetica,sans-Serif" font-size="14.00">5</text>
</g>
<!-- left_4&#45;&gt;left_5 -->
<g id="edge32" class="edge">
<title>left_4&#45;&gt;left_5</title>
<path fill="none" stroke="#9a5b38" stroke-width="3" d="M284.05,-269.41C292.75,-268.6 303.56,-267.6 313.5,-266.67"/>
<polygon fill="#9a5b38" stroke="#9a5b38" stroke-width="3" points="313.72,-269.11 320.47,-266.03 313.27,-264.24 313.72,-269.11"/>
<text xml:space="preserve" text-anchor="middle" x="304.61" y="-269.41" font-family="Helvetica,sans-Serif" font-size="14.00" fill="#9a5b38">j</text>
</g>
<!-- left_6 -->
<g id="node26" class="node">
<title>left_6</title>
<ellipse fill="none" stroke="#495057" stroke-width="1.2" cx="343.27" cy="-317" rx="17.28" ry="17.28"/>
<text xml:space="preserve" text-anchor="middle" x="343.27" y="-311.2" font-family="Helvetica,sans-Serif" font-size="14.00">6</text>
</g>
<!-- left_4&#45;&gt;left_6 -->
<g id="edge33" class="edge">
<title>left_4&#45;&gt;left_6</title>
<path fill="none" stroke="#868e96" stroke-width="1.1" d="M281.84,-280.09C292.91,-286.85 308.2,-296.19 320.63,-303.78"/>
<polygon fill="#868e96" stroke="#868e96" stroke-width="1.1" points="319.26,-305.82 326.51,-307.38 321.82,-301.64 319.26,-305.82"/>
<text xml:space="preserve" text-anchor="middle" x="304.61" y="-297.08" font-family="Helvetica,sans-Serif" font-size="14.00" fill="#868e96">z</text>
</g>
<!-- left_7 -->
<g id="node27" class="node">
<title>left_7</title>
<ellipse fill="none" stroke="#495057" stroke-width="1.2" cx="420.58" cy="-305" rx="17.28" ry="17.28"/>
<text xml:space="preserve" text-anchor="middle" x="420.58" y="-299.2" font-family="Helvetica,sans-Serif" font-size="14.00">7</text>
</g>
<!-- left_5&#45;&gt;left_7 -->
<g id="edge35" class="edge">
<title>left_5&#45;&gt;left_7</title>
<path fill="none" stroke="#868e96" stroke-width="1.1" d="M359.51,-272.3C370.37,-278.21 385.14,-286.25 397.32,-292.88"/>
<polygon fill="#868e96" stroke="#868e96" stroke-width="1.1" points="396.09,-295 403.41,-296.2 398.44,-290.7 396.09,-295"/>
<text xml:space="preserve" text-anchor="middle" x="381.92" y="-287.43" font-family="Helvetica,sans-Serif" font-size="14.00" fill="#868e96">y</text>
</g>
<!-- left_8 -->
<g id="node28" class="node">
<title>left_8</title>
<ellipse fill="none" stroke="#9a5b38" stroke-width="2.4" cx="498.64" cy="-255" rx="17.28" ry="17.28"/>
<text xml:space="preserve" text-anchor="middle" x="498.64" y="-249.2" font-family="Helvetica,sans-Serif" font-size="14.00">8</text>
</g>
<!-- left_5&#45;&gt;left_8 -->
<g id="edge34" class="edge">
<title>left_5&#45;&gt;left_8</title>
<path fill="none" stroke="#9a5b38" stroke-width="3" d="M361.57,-262.99C387.71,-261.45 437.58,-258.52 469.14,-256.67"/>
<polygon fill="#9a5b38" stroke="#9a5b38" stroke-width="3" points="469.26,-259.12 476.11,-256.26 468.98,-254.23 469.26,-259.12"/>
<text xml:space="preserve" text-anchor="middle" x="420.58" y="-262.09" font-family="Helvetica,sans-Serif" font-size="14.00" fill="#9a5b38">u</text>
</g>
<!-- left_6&#45;&gt;left_7 -->
<g id="edge36" class="edge">
<title>left_6&#45;&gt;left_7</title>
<path fill="none" stroke="#868e96" stroke-width="1.1" d="M360.61,-314.4C370.51,-312.82 383.34,-310.77 394.5,-309"/>
<polygon fill="#868e96" stroke="#868e96" stroke-width="1.1" points="394.84,-311.42 401.37,-307.9 394.07,-306.58 394.84,-311.42"/>
<text xml:space="preserve" text-anchor="middle" x="381.92" y="-313.06" font-family="Helvetica,sans-Serif" font-size="14.00" fill="#868e96">y</text>
</g>
<!-- left_7&#45;&gt;left_8 -->
<g id="edge37" class="edge">
<title>left_7&#45;&gt;left_8</title>
<path fill="none" stroke="#868e96" stroke-width="1.1" d="M435.53,-295.83C446.79,-288.43 462.83,-277.89 475.79,-269.37"/>
<polygon fill="#868e96" stroke="#868e96" stroke-width="1.1" points="477.11,-271.43 481.61,-265.54 474.41,-267.34 477.11,-271.43"/>
<text xml:space="preserve" text-anchor="middle" x="459.61" y="-283.2" font-family="Helvetica,sans-Serif" font-size="14.00" fill="#868e96">u</text>
</g>
<!-- left_9 -->
<g id="node29" class="node">
<title>left_9</title>
<ellipse fill="none" stroke="#9a5b38" stroke-width="2.4" cx="572.95" cy="-255" rx="17.28" ry="17.28"/>
<text xml:space="preserve" text-anchor="middle" x="572.95" y="-249.2" font-family="Helvetica,sans-Serif" font-size="14.00">9</text>
</g>
<!-- left_8&#45;&gt;left_9 -->
<g id="edge38" class="edge">
<title>left_8&#45;&gt;left_9</title>
<path fill="none" stroke="#9a5b38" stroke-width="3" d="M516.78,-255C524.79,-255 534.55,-255 543.62,-255"/>
<polygon fill="#9a5b38" stroke="#9a5b38" stroke-width="3" points="543.4,-257.45 550.4,-255 543.4,-252.55 543.4,-257.45"/>
<text xml:space="preserve" text-anchor="middle" x="535.79" y="-256.7" font-family="Helvetica,sans-Serif" font-size="14.00" fill="#9a5b38">t</text>
</g>
<!-- left_10 -->
<g id="node30" class="node">
<title>left_10</title>
<ellipse fill="none" stroke="#495057" stroke-width="1.2" cx="650.26" cy="-240" rx="17.28" ry="17.28"/>
<text xml:space="preserve" text-anchor="middle" x="650.26" y="-234.2" font-family="Helvetica,sans-Serif" font-size="14.00">10</text>
</g>
<!-- left_9&#45;&gt;left_10 -->
<g id="edge39" class="edge">
<title>left_9&#45;&gt;left_10</title>
<path fill="none" stroke="#868e96" stroke-width="1.1" d="M591.04,-251.6C600.9,-249.63 613.48,-247.13 624.42,-244.95"/>
<polygon fill="#868e96" stroke="#868e96" stroke-width="1.1" points="624.74,-247.38 631.12,-243.61 623.78,-242.58 624.74,-247.38"/>
<text xml:space="preserve" text-anchor="middle" x="611.6" y="-249.65" font-family="Helvetica,sans-Serif" font-size="14.00" fill="#868e96">s</text>
</g>
<!-- left_11 -->
<g id="node31" class="node">
<title>left_11</title>
<ellipse fill="none" stroke="#9a5b38" stroke-width="2.4" cx="728.32" cy="-286" rx="17.28" ry="17.28"/>
<text xml:space="preserve" text-anchor="middle" x="728.32" y="-280.2" font-family="Helvetica,sans-Serif" font-size="14.00">11</text>
</g>
<!-- left_9&#45;&gt;left_11 -->
<g id="edge40" class="edge">
<title>left_9&#45;&gt;left_11</title>
<path fill="none" stroke="#9a5b38" stroke-width="3" d="M590.2,-261.18C595.86,-263.2 602.28,-265.35 608.23,-267 642.04,-276.37 650.78,-278.18 685.54,-283 689.83,-283.59 694.38,-284.08 698.84,-284.46"/>
<polygon fill="#9a5b38" stroke="#9a5b38" stroke-width="3" points="698.5,-286.89 705.66,-284.96 698.86,-282.01 698.5,-286.89"/>
<text xml:space="preserve" text-anchor="middle" x="650.26" y="-282.08" font-family="Helvetica,sans-Serif" font-size="14.00" fill="#9a5b38">u</text>
</g>
<!-- left_10&#45;&gt;left_11 -->
<g id="edge41" class="edge">
<title>left_10&#45;&gt;left_11</title>
<path fill="none" stroke="#868e96" stroke-width="1.1" d="M665.57,-248.65C676.72,-255.4 692.4,-264.88 705.17,-272.6"/>
<polygon fill="#868e96" stroke="#868e96" stroke-width="1.1" points="703.61,-274.53 710.87,-276.05 706.15,-270.33 703.61,-274.53"/>
<text xml:space="preserve" text-anchor="middle" x="689.29" y="-266.08" font-family="Helvetica,sans-Serif" font-size="14.00" fill="#868e96">u</text>
</g>
<!-- left_12 -->
<g id="node32" class="node">
<title>left_12</title>
<ellipse fill="none" stroke="#9a5b38" stroke-width="2.4" cx="805.63" cy="-286" rx="17.28" ry="17.28"/>
<text xml:space="preserve" text-anchor="middle" x="805.63" y="-280.2" font-family="Helvetica,sans-Serif" font-size="14.00">12</text>
</g>
<!-- left_11&#45;&gt;left_12 -->
<g id="edge42" class="edge">
<title>left_11&#45;&gt;left_12</title>
<path fill="none" stroke="#9a5b38" stroke-width="3" d="M746.79,-286C755.44,-286 766.1,-286 775.91,-286"/>
<polygon fill="#9a5b38" stroke="#9a5b38" stroke-width="3" points="775.72,-288.45 782.72,-286 775.72,-283.55 775.72,-288.45"/>
<text xml:space="preserve" text-anchor="middle" x="766.97" y="-287.7" font-family="Helvetica,sans-Serif" font-size="14.00" fill="#9a5b38">k</text>
</g>
<!-- left_13 -->
<g id="node33" class="node">
<title>left_13</title>
<ellipse fill="none" stroke="#9a5b38" stroke-width="2.4" cx="883.69" cy="-286" rx="17.28" ry="17.28"/>
<text xml:space="preserve" text-anchor="middle" x="883.69" y="-280.2" font-family="Helvetica,sans-Serif" font-size="14.00">13</text>
</g>
<!-- left_12&#45;&gt;left_13 -->
<g id="edge43" class="edge">
<title>left_12&#45;&gt;left_13</title>
<path fill="none" stroke="#9a5b38" stroke-width="3" d="M823.89,-286C832.77,-286 843.84,-286 853.97,-286"/>
<polygon fill="#9a5b38" stroke="#9a5b38" stroke-width="3" points="853.7,-288.45 860.7,-286 853.7,-283.55 853.7,-288.45"/>
<text xml:space="preserve" text-anchor="middle" x="844.66" y="-287.7" font-family="Helvetica,sans-Serif" font-size="14.00" fill="#9a5b38">a</text>
</g>
<!-- left_14 -->
<g id="node34" class="node">
<title>left_14</title>
<ellipse fill="none" stroke="#9a5b38" stroke-width="2.4" cx="957.25" cy="-286" rx="17.28" ry="17.28"/>
<text xml:space="preserve" text-anchor="middle" x="957.25" y="-280.2" font-family="Helvetica,sans-Serif" font-size="14.00">14</text>
</g>
<!-- left_13&#45;&gt;left_14 -->
<g id="edge44" class="edge">
<title>left_13&#45;&gt;left_14</title>
<path fill="none" stroke="#9a5b38" stroke-width="3" d="M902.01,-286C909.69,-286 918.93,-286 927.59,-286"/>
<polygon fill="#9a5b38" stroke="#9a5b38" stroke-width="3" points="927.3,-288.45 934.3,-286 927.3,-283.55 927.3,-288.45"/>
<text xml:space="preserve" text-anchor="middle" x="920.47" y="-287.7" font-family="Helvetica,sans-Serif" font-size="14.00" fill="#9a5b38">i</text>
</g>
<!-- left_15 -->
<g id="node35" class="node">
<title>left_15</title>
<ellipse fill="none" stroke="#9a5b38" stroke-width="2.4" cx="1034.56" cy="-286" rx="17.28" ry="17.28"/>
<text xml:space="preserve" text-anchor="middle" x="1034.56" y="-280.2" font-family="Helvetica,sans-Serif" font-size="14.00">15</text>
</g>
<!-- left_14&#45;&gt;left_15 -->
<g id="edge45" class="edge">
<title>left_14&#45;&gt;left_15</title>
<path fill="none" stroke="#9a5b38" stroke-width="3" d="M975.72,-286C984.37,-286 995.03,-286 1004.84,-286"/>
<polygon fill="#9a5b38" stroke="#9a5b38" stroke-width="3" points="1004.65,-288.45 1011.65,-286 1004.65,-283.55 1004.65,-288.45"/>
<text xml:space="preserve" text-anchor="middle" x="995.9" y="-287.7" font-family="Helvetica,sans-Serif" font-size="14.00" fill="#9a5b38">s</text>
</g>
<!-- left_16 -->
<g id="node36" class="node">
<title>left_16</title>
<ellipse fill="none" stroke="#9a5b38" stroke-width="2.4" cx="1112.62" cy="-286" rx="17.28" ry="17.28"/>
<text xml:space="preserve" text-anchor="middle" x="1112.62" y="-280.2" font-family="Helvetica,sans-Serif" font-size="14.00">16</text>
</g>
<!-- left_15&#45;&gt;left_16 -->
<g id="edge46" class="edge">
<title>left_15&#45;&gt;left_16</title>
<path fill="none" stroke="#9a5b38" stroke-width="3" d="M1052.82,-286C1061.7,-286 1072.77,-286 1082.9,-286"/>
<polygon fill="#9a5b38" stroke="#9a5b38" stroke-width="3" points="1082.63,-288.45 1089.63,-286 1082.63,-283.55 1082.63,-288.45"/>
<text xml:space="preserve" text-anchor="middle" x="1073.59" y="-287.7" font-family="Helvetica,sans-Serif" font-size="14.00" fill="#9a5b38">e</text>
</g>
<!-- left_17 -->
<g id="node37" class="node">
<title>left_17</title>
<ellipse fill="none" stroke="#495057" stroke-width="1.2" cx="1190.68" cy="-233" rx="17.28" ry="17.28"/>
<text xml:space="preserve" text-anchor="middle" x="1190.68" y="-227.2" font-family="Helvetica,sans-Serif" font-size="14.00">17</text>
</g>
<!-- left_16&#45;&gt;left_17 -->
<g id="edge49" class="edge">
<title>left_16&#45;&gt;left_17</title>
<path fill="none" stroke="#868e96" stroke-width="1.1" d="M1127.93,-276.03C1139.47,-267.99 1155.88,-256.55 1168.88,-247.5"/>
<polygon fill="#868e96" stroke="#868e96" stroke-width="1.1" points="1169.99,-249.71 1174.33,-243.7 1167.18,-245.69 1169.99,-249.71"/>
<text xml:space="preserve" text-anchor="middle" x="1151.65" y="-262.79" font-family="Helvetica,sans-Serif" font-size="14.00" fill="#868e96">n</text>
</g>
<!-- left_18 -->
<g id="node38" class="node">
<title>left_18</title>
<ellipse fill="none" stroke="#9a5b38" stroke-width="2.4" cx="1272.74" cy="-286" rx="17.28" ry="17.28"/>
<ellipse fill="none" stroke="#9a5b38" stroke-width="2.4" cx="1272.74" cy="-286" rx="21.28" ry="21.28"/>
<text xml:space="preserve" text-anchor="middle" x="1272.74" y="-280.2" font-family="Helvetica,sans-Serif" font-size="14.00">EOS</text>
</g>
<!-- left_16&#45;&gt;left_18 -->
<g id="edge47" class="edge">
<title>left_16&#45;&gt;left_18</title>
<path fill="none" stroke="#9a5b38" stroke-width="3" d="M1130.84,-286C1156.72,-286 1206.1,-286 1238.98,-286"/>
<polygon fill="#9a5b38" stroke="#9a5b38" stroke-width="3" points="1238.73,-288.45 1245.73,-286 1238.73,-283.55 1238.73,-288.45"/>
<text xml:space="preserve" text-anchor="middle" x="1190.68" y="-287.7" font-family="Helvetica,sans-Serif" font-size="14.00" fill="#9a5b38">m</text>
</g>
<!-- left_16&#45;&gt;left_18 -->
<g id="edge48" class="edge">
<title>left_16&#45;&gt;left_18</title>
<path fill="none" stroke="#868e96" stroke-width="1.1" d="M1129.79,-292.63C1141.63,-297.12 1158.23,-302.65 1173.4,-305 1188.58,-307.35 1192.76,-307.22 1207.96,-305 1219.89,-303.26 1232.7,-299.78 1243.68,-296.27"/>
<polygon fill="#868e96" stroke="#868e96" stroke-width="1.1" points="1244.24,-298.67 1250.1,-294.13 1242.69,-294.02 1244.24,-298.67"/>
<text xml:space="preserve" text-anchor="middle" x="1190.68" y="-308.41" font-family="Helvetica,sans-Serif" font-size="14.00" fill="#868e96">n</text>
</g>
<!-- left_17&#45;&gt;left_18 -->
<g id="edge50" class="edge">
<title>left_17&#45;&gt;left_18</title>
<path fill="none" stroke="#868e96" stroke-width="1.1" d="M1205.63,-242.23C1216.89,-249.69 1233.04,-260.38 1246.55,-269.32"/>
<polygon fill="#868e96" stroke="#868e96" stroke-width="1.1" points="1245.16,-271.34 1252.35,-273.17 1247.87,-267.26 1245.16,-271.34"/>
<text xml:space="preserve" text-anchor="middle" x="1229.71" y="-261.2" font-family="Helvetica,sans-Serif" font-size="14.00" fill="#868e96">n</text>
</g>
</g>
</svg>
