<?xml version="1.0" encoding="UTF-8" standalone="no"?>
<!DOCTYPE svg PUBLIC "-//W3C//DTD SVG 1.1//EN"
 "http://www.w3.org/Graphics/SVG/1.1/DTD/svg11.dtd">
<!-- Generated by graphviz version 15.0.0 (20260523.1842)
 -->
<!-- Title: moine_pinyin_lattice Pages: 1 -->
<svg width="1247pt" height="322pt"
 viewBox="0.00 0.00 1247.00 322.00" xmlns="http://www.w3.org/2000/svg" xmlns:xlink="http://www.w3.org/1999/xlink">
<g id="graph0" class="graph" transform="scale(1 1) rotate(0) translate(4 318)">
<title>moine_pinyin_lattice</title>
<polygon fill="white" stroke="none" points="-4,4 -4,-318 1243.21,-318 1243.21,4 -4,4"/>
<text xml:space="preserve" text-anchor="middle" x="619.6" y="-296.7" font-family="Helvetica,sans-Serif" font-size="14.00">distance=0</text>
<text xml:space="preserve" text-anchor="middle" x="619.6" y="-281.7" font-family="Helvetica,sans-Serif" font-size="14.00">best_left=tiaoheweishiji</text>
<text xml:space="preserve" text-anchor="middle" x="619.6" y="-266.7" font-family="Helvetica,sans-Serif" font-size="14.00">best_right=tiaoheweishiji</text>
<g id="clust1" class="cluster">
<title>cluster_right</title>
<path fill="none" stroke="#ced4da" d="M20,-8C20,-8 1219.21,-8 1219.21,-8 1225.21,-8 1231.21,-14 1231.21,-20 1231.21,-20 1231.21,-137 1231.21,-137 1231.21,-143 1225.21,-149 1219.21,-149 1219.21,-149 20,-149 20,-149 14,-149 8,-143 8,-137 8,-137 8,-20 8,-20 8,-14 14,-8 20,-8"/>
<text xml:space="preserve" text-anchor="middle" x="619.6" y="-131.7" font-family="Helvetica,sans-Serif" font-size="14.00">RIGHT</text>
<text xml:space="preserve" text-anchor="middle" x="619.6" y="-116.7" font-family="Helvetica,sans-Serif" font-size="14.00">input=调和威士忌</text>
</g>
<g id="clust2" class="cluster">
<title>cluster_left</title>
<path fill="none" stroke="#ced4da" d="M20,-157C20,-157 1137.65,-157 1137.65,-157 1143.65,-157 1149.65,-163 1149.65,-169 1149.65,-169 1149.65,-241 1149.65,-241 1149.65,-247 1143.65,-253 1137.65,-253 1137.65,-253 20,-253 20,-253 14,-253 8,-247 8,-241 8,-241 8,-169 8,-169 8,-163 14,-157 20,-157"/>
<text xml:space="preserve" text-anchor="middle" x="578.82" y="-235.7" font-family="Helvetica,sans-Serif" font-size="14.00">LEFT</text>
<text xml:space="preserve" text-anchor="middle" x="578.82" y="-220.7" font-family="Helvetica,sans-Serif" font-size="14.00">input=tiaoheweishiji</text>
</g>
<!-- right_0 -->
<g id="node1" class="node">
<title>right_0</title>
<ellipse fill="none" stroke="#9a5b38" stroke-width="2.4" cx="33.28" cy="-53" rx="17.28" ry="17.28"/>
<text xml:space="preserve" text-anchor="middle" x="33.28" y="-47.2" font-family="Helvetica,sans-Serif" font-size="14.00">BOS</text>
</g>
<!-- right_1 -->
<g id="node2" class="node">
<title>right_1</title>
<ellipse fill="none" stroke="#9a5b38" stroke-width="2.4" cx="111.34" cy="-60" rx="17.28" ry="17.28"/>
<text xml:space="preserve" text-anchor="middle" x="111.34" y="-54.2" font-family="Helvetica,sans-Serif" font-size="14.00">1</text>
</g>
<!-- right_0&#45;&gt;right_1 -->
<g id="edge1" class="edge">
<title>right_0&#45;&gt;right_1</title>
<path fill="none" stroke="#868e96" stroke-width="1.1" d="M47.59,-41.9C55.68,-36.51 66.3,-31.82 76.06,-35 81.3,-36.71 86.4,-39.55 91.01,-42.72"/>
<polygon fill="#868e96" stroke="#868e96" stroke-width="1.1" points="89.39,-44.57 96.44,-46.85 92.35,-40.67 89.39,-44.57"/>
<text xml:space="preserve" text-anchor="middle" x="72.31" y="-36.7" font-family="Helvetica,sans-Serif" font-size="14.00" fill="#868e96">d</text>
</g>
<!-- right_0&#45;&gt;right_1 -->
<g id="edge2" class="edge">
<title>right_0&#45;&gt;right_1</title>
<path fill="none" stroke="#9a5b38" stroke-width="3" d="M51.54,-54.59C60.49,-55.41 71.65,-56.44 81.83,-57.38"/>
<polygon fill="#9a5b38" stroke="#9a5b38" stroke-width="3" points="81.43,-59.8 88.63,-58 81.88,-54.92 81.43,-59.8"/>
<text xml:space="preserve" text-anchor="middle" x="72.31" y="-58.41" font-family="Helvetica,sans-Serif" font-size="14.00" fill="#9a5b38">t</text>
</g>
<!-- right_2 -->
<g id="node3" class="node">
<title>right_2</title>
<ellipse fill="none" stroke="#9a5b38" stroke-width="2.4" cx="184.9" cy="-60" rx="17.28" ry="17.28"/>
<text xml:space="preserve" text-anchor="middle" x="184.9" y="-54.2" font-family="Helvetica,sans-Serif" font-size="14.00">2</text>
</g>
<!-- right_1&#45;&gt;right_2 -->
<g id="edge3" class="edge">
<title>right_1&#45;&gt;right_2</title>
<path fill="none" stroke="#9a5b38" stroke-width="3" d="M129.66,-60C137.34,-60 146.58,-60 155.24,-60"/>
<polygon fill="#9a5b38" stroke="#9a5b38" stroke-width="3" points="154.95,-62.45 161.95,-60 154.95,-57.55 154.95,-62.45"/>
<text xml:space="preserve" text-anchor="middle" x="148.12" y="-61.7" font-family="Helvetica,sans-Serif" font-size="14.00" fill="#9a5b38">i</text>
</g>
<!-- right_3 -->
<g id="node4" class="node">
<title>right_3</title>
<ellipse fill="none" stroke="#9a5b38" stroke-width="2.4" cx="262.96" cy="-60" rx="17.28" ry="17.28"/>
<text xml:space="preserve" text-anchor="middle" x="262.96" y="-54.2" font-family="Helvetica,sans-Serif" font-size="14.00">3</text>
</g>
<!-- right_2&#45;&gt;right_3 -->
<g id="edge4" class="edge">
<title>right_2&#45;&gt;right_3</title>
<path fill="none" stroke="#9a5b38" stroke-width="3" d="M203.16,-60C212.04,-60 223.11,-60 233.24,-60"/>
<polygon fill="#9a5b38" stroke="#9a5b38" stroke-width="3" points="232.97,-62.45 239.97,-60 232.97,-57.55 232.97,-62.45"/>
<text xml:space="preserve" text-anchor="middle" x="223.93" y="-61.7" font-family="Helvetica,sans-Serif" font-size="14.00" fill="#9a5b38">a</text>
</g>
<!-- right_4 -->
<g id="node5" class="node">
<title>right_4</title>
<ellipse fill="none" stroke="#9a5b38" stroke-width="2.4" cx="341.02" cy="-60" rx="17.28" ry="17.28"/>
<text xml:space="preserve" text-anchor="middle" x="341.02" y="-54.2" font-family="Helvetica,sans-Serif" font-size="14.00">4</text>
</g>
<!-- right_3&#45;&gt;right_4 -->
<g id="edge5" class="edge">
<title>right_3&#45;&gt;right_4</title>
<path fill="none" stroke="#9a5b38" stroke-width="3" d="M281.22,-60C290.1,-60 301.17,-60 311.3,-60"/>
<polygon fill="#9a5b38" stroke="#9a5b38" stroke-width="3" points="311.03,-62.45 318.03,-60 311.03,-57.55 311.03,-62.45"/>
<text xml:space="preserve" text-anchor="middle" x="301.99" y="-61.7" font-family="Helvetica,sans-Serif" font-size="14.00" fill="#9a5b38">o</text>
</g>
<!-- right_5 -->
<g id="node6" class="node">
<title>right_5</title>
<ellipse fill="none" stroke="#9a5b38" stroke-width="2.4" cx="419.08" cy="-60" rx="17.28" ry="17.28"/>
<text xml:space="preserve" text-anchor="middle" x="419.08" y="-54.2" font-family="Helvetica,sans-Serif" font-size="14.00">5</text>
</g>
<!-- right_4&#45;&gt;right_5 -->
<g id="edge6" class="edge">
<title>right_4&#45;&gt;right_5</title>
<path fill="none" stroke="#9a5b38" stroke-width="3" d="M359.28,-60C368.16,-60 379.23,-60 389.36,-60"/>
<polygon fill="#9a5b38" stroke="#9a5b38" stroke-width="3" points="389.09,-62.45 396.09,-60 389.09,-57.55 389.09,-62.45"/>
<text xml:space="preserve" text-anchor="middle" x="380.05" y="-61.7" font-family="Helvetica,sans-Serif" font-size="14.00" fill="#9a5b38">h</text>
</g>
<!-- right_6 -->
<g id="node7" class="node">
<title>right_6</title>
<ellipse fill="none" stroke="#495057" stroke-width="1.2" cx="497.14" cy="-33" rx="17.28" ry="17.28"/>
<text xml:space="preserve" text-anchor="middle" x="497.14" y="-27.2" font-family="Helvetica,sans-Serif" font-size="14.00">6</text>
</g>
<!-- right_5&#45;&gt;right_6 -->
<g id="edge8" class="edge">
<title>right_5&#45;&gt;right_6</title>
<path fill="none" stroke="#868e96" stroke-width="1.1" d="M436.58,-54.14C446.99,-50.45 460.6,-45.61 472.19,-41.5"/>
<polygon fill="#868e96" stroke="#868e96" stroke-width="1.1" points="472.84,-43.87 478.62,-39.22 471.2,-39.25 472.84,-43.87"/>
<text xml:space="preserve" text-anchor="middle" x="458.11" y="-49.01" font-family="Helvetica,sans-Serif" font-size="14.00" fill="#868e96">u</text>
</g>
<!-- right_7 -->
<g id="node8" class="node">
<title>right_7</title>
<ellipse fill="none" stroke="#9a5b38" stroke-width="2.4" cx="577.45" cy="-84" rx="17.28" ry="17.28"/>
<text xml:space="preserve" text-anchor="middle" x="577.45" y="-78.2" font-family="Helvetica,sans-Serif" font-size="14.00">7</text>
</g>
<!-- right_5&#45;&gt;right_7 -->
<g id="edge7" class="edge">
<title>right_5&#45;&gt;right_7</title>
<path fill="none" stroke="#9a5b38" stroke-width="3" d="M437.11,-63.83C459.04,-68.6 498.37,-76.67 532.42,-81 537.38,-81.63 542.67,-82.13 547.8,-82.54"/>
<polygon fill="#9a5b38" stroke="#9a5b38" stroke-width="3" points="547.58,-84.98 554.73,-82.99 547.91,-80.09 547.58,-84.98"/>
<text xml:space="preserve" text-anchor="middle" x="497.14" y="-80.03" font-family="Helvetica,sans-Serif" font-size="14.00" fill="#9a5b38">e</text>
</g>
<!-- right_6&#45;&gt;right_7 -->
<g id="edge9" class="edge">
<title>right_6&#45;&gt;right_7</title>
<path fill="none" stroke="#868e96" stroke-width="1.1" d="M512.14,-42.12C523.94,-49.81 541.04,-60.94 554.64,-69.79"/>
<polygon fill="#868e96" stroke="#868e96" stroke-width="1.1" points="553.18,-71.77 560.38,-73.53 555.85,-67.66 553.18,-71.77"/>
<text xml:space="preserve" text-anchor="middle" x="537.29" y="-63.25" font-family="Helvetica,sans-Serif" font-size="14.00" fill="#868e96">o</text>
</g>
<!-- right_8 -->
<g id="node9" class="node">
<title>right_8</title>
<ellipse fill="none" stroke="#9a5b38" stroke-width="2.4" cx="657.76" cy="-54" rx="17.28" ry="17.28"/>
<text xml:space="preserve" text-anchor="middle" x="657.76" y="-48.2" font-family="Helvetica,sans-Serif" font-size="14.00">8</text>
</g>
<!-- right_6&#45;&gt;right_8 -->
<g id="edge10" class="edge">
<title>right_6&#45;&gt;right_8</title>
<path fill="none" stroke="#868e96" stroke-width="1.1" d="M514.94,-34.37C534.24,-36.03 566.85,-39.09 594.73,-43 606.78,-44.69 620.07,-46.99 631.25,-49.05"/>
<polygon fill="#868e96" stroke="#868e96" stroke-width="1.1" points="630.73,-51.44 638.06,-50.32 631.63,-46.63 630.73,-51.44"/>
<text xml:space="preserve" text-anchor="middle" x="577.45" y="-44.7" font-family="Helvetica,sans-Serif" font-size="14.00" fill="#868e96">w</text>
</g>
<!-- right_7&#45;&gt;right_8 -->
<g id="edge11" class="edge">
<title>right_7&#45;&gt;right_8</title>
<path fill="none" stroke="#9a5b38" stroke-width="3" d="M594.68,-77.78C604.86,-73.88 618.24,-68.76 629.97,-64.26"/>
<polygon fill="#9a5b38" stroke="#9a5b38" stroke-width="3" points="630.65,-66.62 636.31,-61.83 628.9,-62.05 630.65,-66.62"/>
<text xml:space="preserve" text-anchor="middle" x="617.6" y="-72.5" font-family="Helvetica,sans-Serif" font-size="14.00" fill="#9a5b38">w</text>
</g>
<!-- right_9 -->
<g id="node10" class="node">
<title>right_9</title>
<ellipse fill="none" stroke="#9a5b38" stroke-width="2.4" cx="735.82" cy="-54" rx="17.28" ry="17.28"/>
<text xml:space="preserve" text-anchor="middle" x="735.82" y="-48.2" font-family="Helvetica,sans-Serif" font-size="14.00">9</text>
</g>
<!-- right_8&#45;&gt;right_9 -->
<g id="edge12" class="edge">
<title>right_8&#45;&gt;right_9</title>
<path fill="none" stroke="#9a5b38" stroke-width="3" d="M676.02,-54C684.9,-54 695.97,-54 706.1,-54"/>
<polygon fill="#9a5b38" stroke="#9a5b38" stroke-width="3" points="705.83,-56.45 712.83,-54 705.83,-51.55 705.83,-56.45"/>
<text xml:space="preserve" text-anchor="middle" x="696.79" y="-55.7" font-family="Helvetica,sans-Serif" font-size="14.00" fill="#9a5b38">e</text>
</g>
<!-- right_10 -->
<g id="node11" class="node">
<title>right_10</title>
<ellipse fill="none" stroke="#9a5b38" stroke-width="2.4" cx="813.13" cy="-54" rx="17.28" ry="17.28"/>
<text xml:space="preserve" text-anchor="middle" x="813.13" y="-48.2" font-family="Helvetica,sans-Serif" font-size="14.00">10</text>
</g>
<!-- right_9&#45;&gt;right_10 -->
<g id="edge13" class="edge">
<title>right_9&#45;&gt;right_10</title>
<path fill="none" stroke="#9a5b38" stroke-width="3" d="M754.29,-54C762.94,-54 773.6,-54 783.41,-54"/>
<polygon fill="#9a5b38" stroke="#9a5b38" stroke-width="3" points="783.22,-56.45 790.22,-54 783.22,-51.55 783.22,-56.45"/>
<text xml:space="preserve" text-anchor="middle" x="774.47" y="-55.7" font-family="Helvetica,sans-Serif" font-size="14.00" fill="#9a5b38">i</text>
</g>
<!-- right_11 -->
<g id="node12" class="node">
<title>right_11</title>
<ellipse fill="none" stroke="#9a5b38" stroke-width="2.4" cx="891.19" cy="-54" rx="17.28" ry="17.28"/>
<text xml:space="preserve" text-anchor="middle" x="891.19" y="-48.2" font-family="Helvetica,sans-Serif" font-size="14.00">11</text>
</g>
<!-- right_10&#45;&gt;right_11 -->
<g id="edge14" class="edge">
<title>right_10&#45;&gt;right_11</title>
<path fill="none" stroke="#9a5b38" stroke-width="3" d="M831.39,-54C840.27,-54 851.34,-54 861.47,-54"/>
<polygon fill="#9a5b38" stroke="#9a5b38" stroke-width="3" points="861.2,-56.45 868.2,-54 861.2,-51.55 861.2,-56.45"/>
<text xml:space="preserve" text-anchor="middle" x="852.16" y="-55.7" font-family="Helvetica,sans-Serif" font-size="14.00" fill="#9a5b38">s</text>
</g>
<!-- right_12 -->
<g id="node13" class="node">
<title>right_12</title>
<ellipse fill="none" stroke="#9a5b38" stroke-width="2.4" cx="969.25" cy="-54" rx="17.28" ry="17.28"/>
<text xml:space="preserve" text-anchor="middle" x="969.25" y="-48.2" font-family="Helvetica,sans-Serif" font-size="14.00">12</text>
</g>
<!-- right_11&#45;&gt;right_12 -->
<g id="edge15" class="edge">
<title>right_11&#45;&gt;right_12</title>
<path fill="none" stroke="#9a5b38" stroke-width="3" d="M909.45,-54C918.33,-54 929.4,-54 939.53,-54"/>
<polygon fill="#9a5b38" stroke="#9a5b38" stroke-width="3" points="939.26,-56.45 946.26,-54 939.26,-51.55 939.26,-56.45"/>
<text xml:space="preserve" text-anchor="middle" x="930.22" y="-55.7" font-family="Helvetica,sans-Serif" font-size="14.00" fill="#9a5b38">h</text>
</g>
<!-- right_13 -->
<g id="node14" class="node">
<title>right_13</title>
<ellipse fill="none" stroke="#9a5b38" stroke-width="2.4" cx="1042.81" cy="-54" rx="17.28" ry="17.28"/>
<text xml:space="preserve" text-anchor="middle" x="1042.81" y="-48.2" font-family="Helvetica,sans-Serif" font-size="14.00">13</text>
</g>
<!-- right_12&#45;&gt;right_13 -->
<g id="edge16" class="edge">
<title>right_12&#45;&gt;right_13</title>
<path fill="none" stroke="#9a5b38" stroke-width="3" d="M987.57,-54C995.25,-54 1004.49,-54 1013.15,-54"/>
<polygon fill="#9a5b38" stroke="#9a5b38" stroke-width="3" points="1012.86,-56.45 1019.86,-54 1012.86,-51.55 1012.86,-56.45"/>
<text xml:space="preserve" text-anchor="middle" x="1006.03" y="-55.7" font-family="Helvetica,sans-Serif" font-size="14.00" fill="#9a5b38">i</text>
</g>
<!-- right_14 -->
<g id="node15" class="node">
<title>right_14</title>
<ellipse fill="none" stroke="#9a5b38" stroke-width="2.4" cx="1120.37" cy="-54" rx="17.28" ry="17.28"/>
<text xml:space="preserve" text-anchor="middle" x="1120.37" y="-48.2" font-family="Helvetica,sans-Serif" font-size="14.00">14</text>
</g>
<!-- right_13&#45;&gt;right_14 -->
<g id="edge17" class="edge">
<title>right_13&#45;&gt;right_14</title>
<path fill="none" stroke="#9a5b38" stroke-width="3" d="M1060.96,-54C1069.69,-54 1080.53,-54 1090.51,-54"/>
<polygon fill="#9a5b38" stroke="#9a5b38" stroke-width="3" points="1090.49,-56.45 1097.49,-54 1090.49,-51.55 1090.49,-56.45"/>
<text xml:space="preserve" text-anchor="middle" x="1079.59" y="-55.7" font-family="Helvetica,sans-Serif" font-size="14.00" fill="#9a5b38">j</text>
</g>
<!-- right_15 -->
<g id="node16" class="node">
<title>right_15</title>
<ellipse fill="none" stroke="#9a5b38" stroke-width="2.4" cx="1201.93" cy="-54" rx="17.28" ry="17.28"/>
<ellipse fill="none" stroke="#9a5b38" stroke-width="2.4" cx="1201.93" cy="-54" rx="21.28" ry="21.28"/>
<text xml:space="preserve" text-anchor="middle" x="1201.93" y="-48.2" font-family="Helvetica,sans-Serif" font-size="14.00">EOS</text>
</g>
<!-- right_14&#45;&gt;right_15 -->
<g id="edge18" class="edge">
<title>right_14&#45;&gt;right_15</title>
<path fill="none" stroke="#9a5b38" stroke-width="3" d="M1138.63,-54C1147.31,-54 1158.11,-54 1168.27,-54"/>
<polygon fill="#9a5b38" stroke="#9a5b38" stroke-width="3" points="1168.19,-56.45 1175.19,-54 1168.19,-51.55 1168.19,-56.45"/>
<text xml:space="preserve" text-anchor="middle" x="1161.15" y="-55.7" font-family="Helvetica,sans-Serif" font-size="14.00" fill="#9a5b38">i</text>
</g>
<!-- left_0 -->
<g id="node17" class="node">
<title>left_0</title>
<ellipse fill="none" stroke="#9a5b38" stroke-width="2.4" cx="33.28" cy="-186" rx="17.28" ry="17.28"/>
<text xml:space="preserve" text-anchor="middle" x="33.28" y="-180.2" font-family="Helvetica,sans-Serif" font-size="14.00">BOS</text>
</g>
<!-- left_1 -->
<g id="node18" class="node">
<title>left_1</title>
<ellipse fill="none" stroke="#9a5b38" stroke-width="2.4" cx="111.34" cy="-186" rx="17.28" ry="17.28"/>
<text xml:space="preserve" text-anchor="middle" x="111.34" y="-180.2" font-family="Helvetica,sans-Serif" font-size="14.00">1</text>
</g>
<!-- left_0&#45;&gt;left_1 -->
<g id="edge19" class="edge">
<title>left_0&#45;&gt;left_1</title>
<path fill="none" stroke="#9a5b38" stroke-width="3" d="M51.54,-186C60.42,-186 71.49,-186 81.62,-186"/>
<polygon fill="#9a5b38" stroke="#9a5b38" stroke-width="3" points="81.35,-188.45 88.35,-186 81.35,-183.55 81.35,-188.45"/>
<text xml:space="preserve" text-anchor="middle" x="72.31" y="-187.7" font-family="Helvetica,sans-Serif" font-size="14.00" fill="#9a5b38">t</text>
</g>
<!-- left_2 -->
<g id="node19" class="node">
<title>left_2</title>
<ellipse fill="none" stroke="#9a5b38" stroke-width="2.4" cx="184.9" cy="-186" rx="17.28" ry="17.28"/>
<text xml:space="preserve" text-anchor="middle" x="184.9" y="-180.2" font-family="Helvetica,sans-Serif" font-size="14.00">2</text>
</g>
<!-- left_1&#45;&gt;left_2 -->
<g id="edge20" class="edge">
<title>left_1&#45;&gt;left_2</title>
<path fill="none" stroke="#9a5b38" stroke-width="3" d="M129.66,-186C137.34,-186 146.58,-186 155.24,-186"/>
<polygon fill="#9a5b38" stroke="#9a5b38" stroke-width="3" points="154.95,-188.45 161.95,-186 154.95,-183.55 154.95,-188.45"/>
<text xml:space="preserve" text-anchor="middle" x="148.12" y="-187.7" font-family="Helvetica,sans-Serif" font-size="14.00" fill="#9a5b38">i</text>
</g>
<!-- left_3 -->
<g id="node20" class="node">
<title>left_3</title>
<ellipse fill="none" stroke="#9a5b38" stroke-width="2.4" cx="262.96" cy="-186" rx="17.28" ry="17.28"/>
<text xml:space="preserve" text-anchor="middle" x="262.96" y="-180.2" font-family="Helvetica,sans-Serif" font-size="14.00">3</text>
</g>
<!-- left_2&#45;&gt;left_3 -->
<g id="edge21" class="edge">
<title>left_2&#45;&gt;left_3</title>
<path fill="none" stroke="#9a5b38" stroke-width="3" d="M203.16,-186C212.04,-186 223.11,-186 233.24,-186"/>
<polygon fill="#9a5b38" stroke="#9a5b38" stroke-width="3" points="232.97,-188.45 239.97,-186 232.97,-183.55 232.97,-188.45"/>
<text xml:space="preserve" text-anchor="middle" x="223.93" y="-187.7" font-family="Helvetica,sans-Serif" font-size="14.00" fill="#9a5b38">a</text>
</g>
<!-- left_4 -->
<g id="node21" class="node">
<title>left_4</title>
<ellipse fill="none" stroke="#9a5b38" stroke-width="2.4" cx="341.02" cy="-186" rx="17.28" ry="17.28"/>
<text xml:space="preserve" text-anchor="middle" x="341.02" y="-180.2" font-family="Helvetica,sans-Serif" font-size="14.00">4</text>
</g>
<!-- left_3&#45;&gt;left_4 -->
<g id="edge22" class="edge">
<title>left_3&#45;&gt;left_4</title>
<path fill="none" stroke="#9a5b38" stroke-width="3" d="M281.22,-186C290.1,-186 301.17,-186 311.3,-186"/>
<polygon fill="#9a5b38" stroke="#9a5b38" stroke-width="3" points="311.03,-188.45 318.03,-186 311.03,-183.55 311.03,-188.45"/>
<text xml:space="preserve" text-anchor="middle" x="301.99" y="-187.7" font-family="Helvetica,sans-Serif" font-size="14.00" fill="#9a5b38">o</text>
</g>
<!-- left_5 -->
<g id="node22" class="node">
<title>left_5</title>
<ellipse fill="none" stroke="#9a5b38" stroke-width="2.4" cx="419.08" cy="-186" rx="17.28" ry="17.28"/>
<text xml:space="preserve" text-anchor="middle" x="419.08" y="-180.2" font-family="Helvetica,sans-Serif" font-size="14.00">5</text>
</g>
<!-- left_4&#45;&gt;left_5 -->
<g id="edge23" class="edge">
<title>left_4&#45;&gt;left_5</title>
<path fill="none" stroke="#9a5b38" stroke-width="3" d="M359.28,-186C368.16,-186 379.23,-186 389.36,-186"/>
<polygon fill="#9a5b38" stroke="#9a5b38" stroke-width="3" points="389.09,-188.45 396.09,-186 389.09,-183.55 389.09,-188.45"/>
<text xml:space="preserve" text-anchor="middle" x="380.05" y="-187.7" font-family="Helvetica,sans-Serif" font-size="14.00" fill="#9a5b38">h</text>
</g>
<!-- left_6 -->
<g id="node23" class="node">
<title>left_6</title>
<ellipse fill="none" stroke="#9a5b38" stroke-width="2.4" cx="497.14" cy="-186" rx="17.28" ry="17.28"/>
<text xml:space="preserve" text-anchor="middle" x="497.14" y="-180.2" font-family="Helvetica,sans-Serif" font-size="14.00">6</text>
</g>
<!-- left_5&#45;&gt;left_6 -->
<g id="edge24" class="edge">
<title>left_5&#45;&gt;left_6</title>
<path fill="none" stroke="#9a5b38" stroke-width="3" d="M437.34,-186C446.22,-186 457.29,-186 467.42,-186"/>
<polygon fill="#9a5b38" stroke="#9a5b38" stroke-width="3" points="467.15,-188.45 474.15,-186 467.15,-183.55 467.15,-188.45"/>
<text xml:space="preserve" text-anchor="middle" x="458.11" y="-187.7" font-family="Helvetica,sans-Serif" font-size="14.00" fill="#9a5b38">e</text>
</g>
<!-- left_7 -->
<g id="node24" class="node">
<title>left_7</title>
<ellipse fill="none" stroke="#9a5b38" stroke-width="2.4" cx="577.45" cy="-186" rx="17.28" ry="17.28"/>
<text xml:space="preserve" text-anchor="middle" x="577.45" y="-180.2" font-family="Helvetica,sans-Serif" font-size="14.00">7</text>
</g>
<!-- left_6&#45;&gt;left_7 -->
<g id="edge25" class="edge">
<title>left_6&#45;&gt;left_7</title>
<path fill="none" stroke="#9a5b38" stroke-width="3" d="M515.52,-186C524.95,-186 536.85,-186 547.62,-186"/>
<polygon fill="#9a5b38" stroke="#9a5b38" stroke-width="3" points="547.58,-188.45 554.58,-186 547.58,-183.55 547.58,-188.45"/>
<text xml:space="preserve" text-anchor="middle" x="537.29" y="-187.7" font-family="Helvetica,sans-Serif" font-size="14.00" fill="#9a5b38">w</text>
</g>
<!-- left_8 -->
<g id="node25" class="node">
<title>left_8</title>
<ellipse fill="none" stroke="#9a5b38" stroke-width="2.4" cx="657.76" cy="-186" rx="17.28" ry="17.28"/>
<text xml:space="preserve" text-anchor="middle" x="657.76" y="-180.2" font-family="Helvetica,sans-Serif" font-size="14.00">8</text>
</g>
<!-- left_7&#45;&gt;left_8 -->
<g id="edge26" class="edge">
<title>left_7&#45;&gt;left_8</title>
<path fill="none" stroke="#9a5b38" stroke-width="3" d="M595.83,-186C605.26,-186 617.16,-186 627.93,-186"/>
<polygon fill="#9a5b38" stroke="#9a5b38" stroke-width="3" points="627.89,-188.45 634.89,-186 627.89,-183.55 627.89,-188.45"/>
<text xml:space="preserve" text-anchor="middle" x="617.6" y="-187.7" font-family="Helvetica,sans-Serif" font-size="14.00" fill="#9a5b38">e</text>
</g>
<!-- left_9 -->
<g id="node26" class="node">
<title>left_9</title>
<ellipse fill="none" stroke="#9a5b38" stroke-width="2.4" cx="735.82" cy="-186" rx="17.28" ry="17.28"/>
<text xml:space="preserve" text-anchor="middle" x="735.82" y="-180.2" font-family="Helvetica,sans-Serif" font-size="14.00">9</text>
</g>
<!-- left_8&#45;&gt;left_9 -->
<g id="edge27" class="edge">
<title>left_8&#45;&gt;left_9</title>
<path fill="none" stroke="#9a5b38" stroke-width="3" d="M676.02,-186C684.9,-186 695.97,-186 706.1,-186"/>
<polygon fill="#9a5b38" stroke="#9a5b38" stroke-width="3" points="705.83,-188.45 712.83,-186 705.83,-183.55 705.83,-188.45"/>
<text xml:space="preserve" text-anchor="middle" x="696.79" y="-187.7" font-family="Helvetica,sans-Serif" font-size="14.00" fill="#9a5b38">i</text>
</g>
<!-- left_10 -->
<g id="node27" class="node">
<title>left_10</title>
<ellipse fill="none" stroke="#9a5b38" stroke-width="2.4" cx="813.13" cy="-186" rx="17.28" ry="17.28"/>
<text xml:space="preserve" text-anchor="middle" x="813.13" y="-180.2" font-family="Helvetica,sans-Serif" font-size="14.00">10</text>
</g>
<!-- left_9&#45;&gt;left_10 -->
<g id="edge28" class="edge">
<title>left_9&#45;&gt;left_10</title>
<path fill="none" stroke="#9a5b38" stroke-width="3" d="M754.29,-186C762.94,-186 773.6,-186 783.41,-186"/>
<polygon fill="#9a5b38" stroke="#9a5b38" stroke-width="3" points="783.22,-188.45 790.22,-186 783.22,-183.55 783.22,-188.45"/>
<text xml:space="preserve" text-anchor="middle" x="774.47" y="-187.7" font-family="Helvetica,sans-Serif" font-size="14.00" fill="#9a5b38">s</text>
</g>
<!-- left_11 -->
<g id="node28" class="node">
<title>left_11</title>
<ellipse fill="none" stroke="#9a5b38" stroke-width="2.4" cx="891.19" cy="-186" rx="17.28" ry="17.28"/>
<text xml:space="preserve" text-anchor="middle" x="891.19" y="-180.2" font-family="Helvetica,sans-Serif" font-size="14.00">11</text>
</g>
<!-- left_10&#45;&gt;left_11 -->
<g id="edge29" class="edge">
<title>left_10&#45;&gt;left_11</title>
<path fill="none" stroke="#9a5b38" stroke-width="3" d="M831.39,-186C840.27,-186 851.34,-186 861.47,-186"/>
<polygon fill="#9a5b38" stroke="#9a5b38" stroke-width="3" points="861.2,-188.45 868.2,-186 861.2,-183.55 861.2,-188.45"/>
<text xml:space="preserve" text-anchor="middle" x="852.16" y="-187.7" font-family="Helvetica,sans-Serif" font-size="14.00" fill="#9a5b38">h</text>
</g>
<!-- left_12 -->
<g id="node29" class="node">
<title>left_12</title>
<ellipse fill="none" stroke="#9a5b38" stroke-width="2.4" cx="969.25" cy="-186" rx="17.28" ry="17.28"/>
<text xml:space="preserve" text-anchor="middle" x="969.25" y="-180.2" font-family="Helvetica,sans-Serif" font-size="14.00">12</text>
</g>
<!-- left_11&#45;&gt;left_12 -->
<g id="edge30" class="edge">
<title>left_11&#45;&gt;left_12</title>
<path fill="none" stroke="#9a5b38" stroke-width="3" d="M909.45,-186C918.33,-186 929.4,-186 939.53,-186"/>
<polygon fill="#9a5b38" stroke="#9a5b38" stroke-width="3" points="939.26,-188.45 946.26,-186 939.26,-183.55 939.26,-188.45"/>
<text xml:space="preserve" text-anchor="middle" x="930.22" y="-187.7" font-family="Helvetica,sans-Serif" font-size="14.00" fill="#9a5b38">i</text>
</g>
<!-- left_13 -->
<g id="node30" class="node">
<title>left_13</title>
<ellipse fill="none" stroke="#9a5b38" stroke-width="2.4" cx="1042.81" cy="-186" rx="17.28" ry="17.28"/>
<text xml:space="preserve" text-anchor="middle" x="1042.81" y="-180.2" font-family="Helvetica,sans-Serif" font-size="14.00">13</text>
</g>
<!-- left_12&#45;&gt;left_13 -->
<g id="edge31" class="edge">
<title>left_12&#45;&gt;left_13</title>
<path fill="none" stroke="#9a5b38" stroke-width="3" d="M987.57,-186C995.25,-186 1004.49,-186 1013.15,-186"/>
<polygon fill="#9a5b38" stroke="#9a5b38" stroke-width="3" points="1012.86,-188.45 1019.86,-186 1012.86,-183.55 1012.86,-188.45"/>
<text xml:space="preserve" text-anchor="middle" x="1006.03" y="-187.7" font-family="Helvetica,sans-Serif" font-size="14.00" fill="#9a5b38">j</text>
</g>
<!-- left_14 -->
<g id="node31" class="node">
<title>left_14</title>
<ellipse fill="none" stroke="#9a5b38" stroke-width="2.4" cx="1120.37" cy="-186" rx="17.28" ry="17.28"/>
<ellipse fill="none" stroke="#9a5b38" stroke-width="2.4" cx="1120.37" cy="-186" rx="21.28" ry="21.28"/>
<text xml:space="preserve" text-anchor="middle" x="1120.37" y="-180.2" font-family="Helvetica,sans-Serif" font-size="14.00">EOS</text>
</g>
<!-- left_13&#45;&gt;left_14 -->
<g id="edge32" class="edge">
<title>left_13&#45;&gt;left_14</title>
<path fill="none" stroke="#9a5b38" stroke-width="3" d="M1060.96,-186C1068.59,-186 1077.83,-186 1086.7,-186"/>
<polygon fill="#9a5b38" stroke="#9a5b38" stroke-width="3" points="1086.43,-188.45 1093.43,-186 1086.43,-183.55 1086.43,-188.45"/>
<text xml:space="preserve" text-anchor="middle" x="1079.59" y="-187.7" font-family="Helvetica,sans-Serif" font-size="14.00" fill="#9a5b38">i</text>
</g>
</g>
</svg>
